# xmcd
#
# Track frame offsets:
# 150
# 11400
# 28072
# 47850
# 62475
# 74300
# 88350
# 105600
# 120487
# 133350
# 147525
# 165112
# 177537
# 191085
#
# Disc length: 2786 seconds
#
#
# Revision: 1
# Processed by: cddbd v1.5.1PL2 Copyright (c) Steve Scherf et al.
# Submitted via: FreeRIP 2.90 
#
DISCID=cb0ae00e
DTITLE=Various Artist - Extra Large
DYEAR=0002
DGENRE=
TTITLE0=Züri West   Nümm mit Dir zäme si
TTITLE1=Büne Huber   Kater
TTITLE2=Stiller Has   Moudi
TTITLE3=Polo Hofer    Johnny Ace
TTITLE4=Stop the Shoppers   Gürbe
TTITLE5=Züri West   Elvis
TTITLE6=Stop the Shoppers   Swinger
TTITLE7=Polo Hofer    Salz and Pfäffer
TTITLE8=Züri West    Blues
TTITLE9=Patent Ochsner   Hotelsong
TTITLE10=Stop the Shoppers   Matilda
TTITLE11=Stiller Has   Löcher
TTITLE12=Züri West    Fisch
TTITLE13=Rumpelstilz    Rote Wy
EXTD=
EXTT0=
EXTT1=
EXTT2=
EXTT3=
EXTT4=
EXTT5=
EXTT6=
EXTT7=
EXTT8=
EXTT9=
EXTT10=
EXTT11=
EXTT12=
EXTT13=
PLAYORDER=
